# xmcd
#
# Track frame offsets:
# 150
# 13928
# 25940
# 37623
# 48891
# 60561
# 73398
# 85783
# 98532
# 109700
# 123062
#
# Disc length: 1783 seconds
#
#
# Revision: 0
# Processed by: cddbd v1.5.2PL0 Copyright (c) Steve Scherf et al.
# Submitted via: FreeRIP 2.945 
#
DISCID=7e06f50b
DTITLE=Bill Anderson - Love Is A Sometimes Thing
DYEAR=1900
DGENRE=Country
TTITLE0=Love Is A Sometimes Thing
TTITLE1=Honey Come Back
TTITLE2=You Can Change My World
TTITLE3=I Don't Have Any Place To Go
TTITLE4=Daddy What If
TTITLE5=You And Your Sweet Love
TTITLE6=Not Really Living At All
TTITLE7=Shirt
TTITLE8=I'll Live For You
TTITLE9=My Elusive Dreams
TTITLE10=And I'm Still Missing You
EXTD=
EXTT0=
EXTT1=
EXTT2=
EXTT3=
EXTT4=
EXTT5=
EXTT6=
EXTT7=
EXTT8=
EXTT9=
EXTT10=
PLAYORDER=
